<svg width="30" height="30" viewBox="0 0 30 30" fill="none" xmlns="http://www.w3.org/2000/svg">
<circle cx="15" cy="15" r="15" fill="#EB6C27"/>
<path fill-rule="evenodd" clip-rule="evenodd" d="M15 10C13.065 10 11.5 11.565 11.5 13.5C11.5 16.125 15 20 15 20C15 20 18.5 16.125 18.5 13.5C18.5 11.565 16.935 10 15 10ZM12.5 13.5C12.5 12.12 13.62 11 15 11C16.38 11 17.5 12.12 17.5 13.5C17.5 14.94 16.06 17.095 15 18.44C13.96 17.105 12.5 14.925 12.5 13.5ZM13.75 13.5C13.75 12.8096 14.3096 12.25 15 12.25C15.4466 12.25 15.8592 12.4882 16.0825 12.875C16.3058 13.2618 16.3058 13.7382 16.0825 14.125C15.8592 14.5118 15.4466 14.75 15 14.75C14.3096 14.75 13.75 14.1904 13.75 13.5Z" fill="white"/>
</svg>
