<svg width="30" height="30" viewBox="0 0 30 30" fill="none" xmlns="http://www.w3.org/2000/svg">
<circle cx="15" cy="15" r="15" fill="#EB6C27"/>
<path fill-rule="evenodd" clip-rule="evenodd" d="M10.5556 10H12.5C12.8056 10 13.0556 10.25 13.0556 10.5556C13.0556 11.25 13.1667 11.9167 13.3722 12.5389C13.4333 12.7333 13.3889 12.95 13.2333 13.1056L12.0111 14.3278C12.8111 15.9 14.1 17.1833 15.6722 17.9889L16.8944 16.7667C17.0056 16.6611 17.1444 16.6056 17.2889 16.6056C17.3444 16.6056 17.4056 16.6111 17.4611 16.6333C18.0833 16.8389 18.7556 16.95 19.4444 16.95C19.75 16.95 20 17.2 20 17.5056V19.4444C20 19.75 19.75 20 19.4444 20C14.2278 20 10 15.7722 10 10.5556C10 10.25 10.25 10 10.5556 10ZM11.9666 11.1111C11.9999 11.6055 12.0832 12.0889 12.2166 12.55L11.5499 13.2166C11.3221 12.55 11.1777 11.8444 11.1277 11.1111H11.9666ZM17.4443 17.7888C17.9165 17.9222 18.3998 18.0055 18.8887 18.0388V18.8666C18.1554 18.8166 17.4498 18.6722 16.7776 18.4499L17.4443 17.7888Z" fill="white"/>
</svg>
